<?xml version="1.0" encoding="UTF-8" standalone="no"?>
<svg
   width="24px"
   height="24px"
   version="1.1"
   viewBox="0 -960 960 960"
   id="svg1"
   sodipodi:docname="ico_file_open.svg"
   inkscape:version="1.4.2 (f4327f4, 2025-05-13)"
   xmlns:inkscape="http://www.inkscape.org/namespaces/inkscape"
   xmlns:sodipodi="http://sodipodi.sourceforge.net/DTD/sodipodi-0.dtd"
   xmlns="http://www.w3.org/2000/svg"
   xmlns:svg="http://www.w3.org/2000/svg">
  <defs
     id="defs1" />
  <sodipodi:namedview
     id="namedview1"
     pagecolor="#ffffff"
     bordercolor="#000000"
     borderopacity="0.25"
     inkscape:showpageshadow="2"
     inkscape:pageopacity="0.0"
     inkscape:pagecheckerboard="0"
     inkscape:deskcolor="#d1d1d1"
     inkscape:zoom="32"
     inkscape:cx="7.8125"
     inkscape:cy="13.328125"
     inkscape:window-width="2560"
     inkscape:window-height="1369"
     inkscape:window-x="-8"
     inkscape:window-y="-8"
     inkscape:window-maximized="1"
     inkscape:current-layer="svg1" />
  <path
     d="m 240,-80 c -22,0 -40.83333,-7.83333 -56.5,-23.5 C 167.83333,-119.16667 160,-138 160,-160 v -640 c 0,-22 7.83333,-40.83333 23.5,-56.5 15.66667,-15.66667 34.5,-23.5 56.5,-23.5 h 320 l 240,240 v 480 c 0,22 -7.8333,40.83333 -23.5,56.5 C 760.8333,-87.83333 742,-80 720,-80 Z"
     id="path1-1"
     sodipodi:nodetypes="ssssssccssss"
     style="fill:#ffffff;fill-opacity:1;stroke:#ffffff;stroke-opacity:1;stroke-width:48;stroke-dasharray:none"
     inkscape:label="file-bg" />
  <path
     d="m 240,-80 q -33,0 -56.5,-23.5 Q 160,-127 160,-160 v -640 q 0,-33 23.5,-56.5 Q 207,-880 240,-880 h 320 l 240,240 v 240 H 720 V -600 H 520 V -800 H 240 v 640 h 360 v 80 z m 638,15 -118,-118 v 89 h -80 v -226 h 226 v 80 h -90 l 118,118 z m -638,-95 v -640 z"
     stroke="#f00"
     stroke-linejoin="round"
     stroke-width="40"
     style="display:inline;stroke:#ffffff;stroke-opacity:1;paint-order:stroke fill markers;stroke-width:48;stroke-dasharray:none"
     id="path1"
     inkscape:label="file-open" />
  <text
     x="302.04337"
     y="-372.44812"
     fill="#000000"
     font-size="213.33px"
     stroke-linejoin="round"
     stroke-opacity="0"
     stroke-width="40"
     style="display:inline;stroke:#ffffff;stroke-opacity:1;paint-order:stroke fill markers"
     xml:space="preserve"
     id="text1"
     inkscape:label="ico-text"><tspan
       x="302.04337"
       y="-372.44812"
       font-family="'Segoe UI'"
       font-size="213.33px"
       font-weight="bold"
       stroke-opacity="0"
       stroke-width="40"
       id="tspan1"
       style="stroke:#ffffff;stroke-opacity:1;paint-order:stroke fill markers">ICO</tspan></text>
</svg>
